<?xml version="1.0" encoding="UTF-8"?>
<svg version="1.1" xmlns="http://www.w3.org/2000/svg" width="32" height="32">
<path d="M0 0 C10.56 0 21.12 0 32 0 C32 10.56 32 21.12 32 32 C21.44 32 10.88 32 0 32 C0 21.44 0 10.88 0 0 Z " fill="#FBFAFB" transform="translate(0,0)"/>
<path d="M0 0 C0.66 0.33 1.32 0.66 2 1 C2 1.66 2 2.32 2 3 C3.65 2.34 5.3 1.68 7 1 C8.33858524 3.28874173 9.67101014 5.58069656 11 7.875 C11.3815625 8.52597656 11.763125 9.17695313 12.15625 9.84765625 C15 14.7734375 15 14.7734375 15 17 C12.36 17 9.72 17 7 17 C7 16.34 7 15.68 7 15 C6.236875 15.33 5.47375 15.66 4.6875 16 C0.3834472 17.60150802 -4.4293048 17 -9 17 C-7.51481201 12.95698825 -5.57122002 9.38853744 -3.375 5.6875 C-2.74335938 4.61886719 -2.11171875 3.55023438 -1.4609375 2.44921875 C-0.97882812 1.64097656 -0.49671875 0.83273438 0 0 Z " fill="#231F20" transform="translate(13,4)"/>
<path d="M0 0 C0.598125 0.33 1.19625 0.66 1.8125 1 C4.05386471 2.20787988 4.05386471 2.20787988 7 2 C6.01 3.485 6.01 3.485 5 5 C5 6.98 5 8.96 5 11 C1.04 11 -2.92 11 -7 11 C-8.64350079 7.71299843 -9.41321669 5.52069985 -10 2 C-7.03 2 -4.06 2 -1 2 C-0.67 1.34 -0.34 0.68 0 0 Z " fill="#EBE7E8" transform="translate(13,18)"/>
<path d="M0 0 C1.6950632 1.6143459 3.0499346 3.07846866 4.3125 5.0625 C5.95130875 7.28185705 5.95130875 7.28185705 9.125 8 C10.07375 8.33 11.0225 8.66 12 9 C12.875 11.125 12.875 11.125 13 13 C10.625 13.1875 10.625 13.1875 8 13 C7.34 12.01 6.68 11.02 6 10 C4.02 10.99 4.02 10.99 2 12 C-0.99481865 7.50777202 -0.99481865 7.50777202 -2 5 C-1.25 2.0625 -1.25 2.0625 0 0 Z " fill="#D4D4D4" transform="translate(13,7)"/>
<path d="M0 0 C0.7425 0.185625 1.485 0.37125 2.25 0.5625 C4.94990963 0.99203108 6.44631077 0.85122974 9 0 C9.33 1.32 9.66 2.64 10 4 C7.44931155 6.35448165 6.28982642 6.98327924 2.75 7.1875 C1.8425 7.125625 0.935 7.06375 0 7 C0 4.69 0 2.38 0 0 Z " fill="#CBB7BE" transform="translate(19,22)"/>
<path d="M0 0 C2.64 0 5.28 0 8 0 C8 2.31 8 4.62 8 7 C5.69 7 3.38 7 1 7 C0.67 4.69 0.34 2.38 0 0 Z " fill="#C8BBC0" transform="translate(10,22)"/>
<path d="M0 0 C0.66 0.33 1.32 0.66 2 1 C2 1.66 2 2.32 2 3 C3.65 2.34 5.3 1.68 7 1 C7.33 2.98 7.66 4.96 8 7 C6.35 7.33 4.7 7.66 3 8 C2.01 6.68 1.02 5.36 0 4 C-1.98 6.97 -1.98 6.97 -4 10 C-4 5.75354935 -2.18249194 3.61475228 0 0 Z " fill="#692B3E" transform="translate(13,4)"/>
<path d="M0 0 C2.89932357 2.39509338 3.50168276 4.31245243 4 8 C2.35 8 0.7 8 -1 8 C-1.66 6.68 -2.32 5.36 -3 4 C-1.68 4 -0.36 4 1 4 C0.67 2.68 0.34 1.36 0 0 Z " fill="#110E0E" transform="translate(20,7)"/>
<path d="M0 0 C0.66 0.99 1.32 1.98 2 3 C0.8125 5 0.8125 5 -1 7 C-3.6875 7.25 -3.6875 7.25 -6 7 C-5.34 5.35 -4.68 3.7 -4 2 C-2.68 2 -1.36 2 0 2 C0 1.34 0 0.68 0 0 Z " fill="#C80B46" transform="translate(12,13)"/>
<path d="M0 0 C0.33 0.66 0.66 1.32 1 2 C1.66 2 2.32 2 3 2 C3.33 1.34 3.66 0.68 4 0 C5.125 4.75 5.125 4.75 4 7 C3.34 7 2.68 7 2 7 C0.5393715 4.35261084 0 3.10551666 0 0 Z " fill="#9D8F94" transform="translate(4,22)"/>
<path d="M0 0 C2.0625 0.4375 2.0625 0.4375 4 1 C4 1.99 4 2.98 4 4 C3.01 4.33 2.02 4.66 1 5 C0.34 3.68 -0.32 2.36 -1 1 C-0.67 0.67 -0.34 0.34 0 0 Z " fill="#9C9D9D" transform="translate(25,22)"/>
</svg>
