<?xml version="1.0" encoding="UTF-8"?>
<svg version="1.1" xmlns="http://www.w3.org/2000/svg" width="395" height="392">
<path d="M0 0 C130.35 0 260.7 0 395 0 C395 129.36 395 258.72 395 392 C264.65 392 134.3 392 0 392 C0 262.64 0 133.28 0 0 Z " fill="#FDFDFD" transform="translate(0,0)"/>
<path d="M0 0 C0.66 0 1.32 0 2 0 C2.57105469 1.03253906 3.14210938 2.06507812 3.73046875 3.12890625 C8.67160405 12.04904843 13.65758784 20.94209341 18.6875 29.8125 C23.22767716 37.82231999 27.70205516 45.85734814 32 54 C34.3466798 51.00114667 36.2885887 47.9026844 38.18359375 44.6015625 C41.75914735 38.41220127 45.38795988 32.25621328 49.03442383 26.10839844 C50.0657912 24.36945083 51.09641752 22.63006563 52.12695312 20.890625 C53.45794135 18.64546139 54.79322899 16.40283969 56.13330078 14.16308594 C57.34793076 12.10491879 58.53549244 10.03045406 59.69091797 7.93847656 C60.20412598 7.02291992 60.71733398 6.10736328 61.24609375 5.1640625 C61.90436157 3.95290771 61.90436157 3.95290771 62.57592773 2.71728516 C63.28084351 1.867229 63.28084351 1.867229 64 1 C65.32 1 66.64 1 68 1 C68.6290625 2.14855469 69.258125 3.29710937 69.90625 4.48046875 C75.04062026 13.81412848 80.32960016 22.97994865 86 32 C90.37991209 39.0095184 94.60598376 46.03151435 98.50390625 53.3203125 C100.06827145 56.12228254 101.75634378 58.80629915 103.5 61.5 C106.36252973 65.92220128 108.90691686 70.43672169 111.37890625 75.0859375 C113.88551031 79.59178479 116.67648599 83.91167854 119.4609375 88.25 C121 91 121 91 121 94 C121.66 94 122.32 94 123 94 C123.38478516 94.71349609 123.38478516 94.71349609 123.77734375 95.44140625 C126.82845371 101.0196982 130.06257722 106.47889112 133.34716797 111.92163086 C136.28937559 116.80140455 139.18402847 121.70740352 142.0625 126.625 C145.06281108 131.74939955 148.11351859 136.83273275 151.25 141.875 C154.15902365 146.56434612 156.83690867 151.32826578 159.44140625 156.19140625 C161.81903727 160.47590926 164.42485385 164.61301824 167.01171875 168.7734375 C169.3892003 172.63159026 171.66217126 176.54304875 173.92578125 180.46875 C175.61284558 183.36831034 177.35548725 186.2317629 179.10546875 189.09375 C179.65364258 189.99407959 180.20181641 190.89440918 180.76660156 191.82202148 C181.86864633 193.62951017 182.97596113 195.43379762 184.08886719 197.23461914 C184.59450195 198.06598389 185.10013672 198.89734863 185.62109375 199.75390625 C186.0792749 200.49970947 186.53745605 201.2455127 187.00952148 202.01391602 C188 204 188 204 188 207 C175.03079813 207.11576082 162.06171881 207.20464814 149.09210587 207.25906086 C143.07000758 207.28517402 137.04826229 207.32060434 131.02636719 207.37719727 C125.2167793 207.43145437 119.40753131 207.46140758 113.59770966 207.47438622 C111.37925616 207.48363733 109.16082163 207.50170236 106.94251251 207.52865028 C103.83919318 207.56485591 100.73728501 207.56994878 97.63378906 207.56762695 C96.25274994 207.59459152 96.25274994 207.59459152 94.84381104 207.62210083 C88.59353165 207.57137528 88.59353165 207.57137528 85.49554443 204.58903503 C85.00201477 203.73465347 84.50848511 202.88027191 84 202 C83.484375 201.34257812 82.96875 200.68515625 82.4375 200.0078125 C79.71008888 196.43549685 77.3074192 192.88896698 75.13671875 188.94140625 C72.71005968 184.79690606 70.03896183 180.72010844 67 177 C66.34 177 65.68 177 65 177 C64.29037109 178.25490234 64.29037109 178.25490234 63.56640625 179.53515625 C59.8018806 186.17000035 55.98176232 192.76768931 52.0625 199.3125 C51.67328369 199.96420166 51.28406738 200.61590332 50.88305664 201.28735352 C48.12394681 205.87605319 48.12394681 205.87605319 47 207 C26.02222483 209.94070471 26.02222483 209.94070471 18.94921875 204.76953125 C17.288523 201.96377333 16.02440985 199.21470166 14.89892578 196.15820312 C13.10000226 191.83922324 10.48252764 187.93020131 8.0625 183.9375 C7.10776268 182.32640053 6.16063111 180.71075954 5.22265625 179.08984375 C4.81797119 178.39753662 4.41328613 177.70522949 3.99633789 176.99194336 C3.00030868 175.00061713 2.45002979 173.17407901 2 171 C-1.66155028 174.25836834 -3.88483818 177.98735924 -6.1875 182.25 C-6.88890944 183.52626899 -7.5907587 184.80229633 -8.29296875 186.078125 C-9.18628906 187.70234375 -10.07960938 189.3265625 -11 191 C-13.97 196.28 -16.94 201.56 -20 207 C-53.33 207 -86.66 207 -121 207 C-120.09991165 203.39964659 -119.23440844 201.49943812 -117.3125 198.4375 C-115.13764279 194.90400278 -113.07836752 191.34805722 -111.125 187.6875 C-108.00818223 181.9153154 -104.5708006 176.36661204 -101.11035156 170.79589844 C-99.07353723 167.50152591 -97.06495025 164.19034156 -95.0625 160.875 C-94.67280029 160.23530273 -94.28310059 159.59560547 -93.8815918 158.93652344 C-92.2974584 156.30794137 -90.97416537 153.92249611 -90 151 C-89.34 151 -88.68 151 -88 151 C-87.74734375 150.13761719 -87.4946875 149.27523437 -87.234375 148.38671875 C-85.93637345 144.8254297 -84.29317764 142.00001551 -82.25 138.8125 C-79.68385467 134.75180564 -77.21316569 130.66987015 -74.9375 126.4375 C-72.74884016 122.3719894 -70.53022101 118.32756958 -68.25 114.3125 C-67.39148438 112.79076172 -67.39148438 112.79076172 -66.515625 111.23828125 C-66.01546875 110.49964844 -65.5153125 109.76101562 -65 109 C-64.34 109 -63.68 109 -63 109 C-62.88406494 108.26475098 -62.76812988 107.52950195 -62.64868164 106.77197266 C-61.99146143 103.96351263 -61.10604772 102.1043124 -59.62109375 99.6484375 C-59.12061523 98.81175537 -58.62013672 97.97507324 -58.10449219 97.11303711 C-57.55438477 96.20948486 -57.00427734 95.30593262 -56.4375 94.375 C-55.24332722 92.38421197 -54.04932428 90.39332205 -52.85546875 88.40234375 C-52.22431152 87.35546387 -51.5931543 86.30858398 -50.94287109 85.22998047 C-47.68556626 79.81478281 -44.46943685 74.37526551 -41.25 68.9375 C-40.58291016 67.81279297 -39.91582031 66.68808594 -39.22851562 65.52929688 C-34.62765017 57.76996014 -30.06104433 49.99101802 -25.50720215 42.20401001 C-19.55310223 32.02350475 -13.56176149 21.86683056 -7.5 11.75 C-6.53791626 10.1419751 -6.53791626 10.1419751 -5.55639648 8.50146484 C-4.97059814 7.5264502 -4.3847998 6.55143555 -3.78125 5.546875 C-3.26626953 4.68932617 -2.75128906 3.83177734 -2.22070312 2.94824219 C-1 1 -1 1 0 0 Z " fill="#070505" transform="translate(166,49)"/>
<path d="M0 0 C0.66 0 1.32 0 2 0 C2.556875 0.99257812 3.11375 1.98515625 3.6875 3.0078125 C10.91401475 15.87854502 18.23380412 28.69229751 25.64086914 41.45996094 C29.71696475 48.49327901 33.75011622 55.55075734 37.76464844 62.61938477 C38.23032227 63.43721436 38.69599609 64.25504395 39.17578125 65.09765625 C39.63162598 65.8983252 40.0874707 66.69899414 40.55712891 67.52392578 C42.59317371 71.01793024 44.734227 74.44604212 46.88745117 77.86889648 C48 80 48 80 48 83 C48.66 83 49.32 83 50 83 C50.556875 83.99257812 51.11375 84.98515625 51.6875 86.0078125 C52.45830621 87.38022356 53.22914115 88.7526185 54 90.125 C54.36222656 90.77082031 54.72445312 91.41664063 55.09765625 92.08203125 C55.88210678 93.47808728 56.68245543 94.86530188 57.49658203 96.2442627 C59 99 59 99 60.47583008 102.48205566 C63.77470783 109.9306001 63.77470783 109.9306001 70.30517578 114.27120972 C74.41380145 114.71994759 78.31700049 114.73592109 82.4375 114.5859375 C83.92822006 114.58225788 85.41896704 114.58476815 86.90966797 114.59317017 C90.81157581 114.59869802 94.70741614 114.52083597 98.60797119 114.42486572 C102.5964733 114.34171892 106.5849811 114.3383961 110.57421875 114.328125 C118.38496888 114.29636286 126.19103447 114.1764062 134 114 C134.50208984 114.9580957 135.00417969 115.91619141 135.52148438 116.90332031 C140.09665116 125.58646145 144.93532611 134.02595635 150.125 142.359375 C150.6303125 143.184375 151.135625 144.009375 151.65625 144.859375 C152.10806641 145.58608398 152.55988281 146.31279297 153.02539062 147.06152344 C154 149 154 149 154 152 C154.66 152 155.32 152 156 152 C157.50519387 154.62214328 159.00431319 157.24744208 160.5 159.875 C161.14388672 160.99455078 161.14388672 160.99455078 161.80078125 162.13671875 C162.20683594 162.85214844 162.61289062 163.56757813 163.03125 164.3046875 C163.40830078 164.96452637 163.78535156 165.62436523 164.17382812 166.30419922 C165 168 165 168 165 170 C143.22 170 121.44 170 99 170 C98.67 168.68 98.34 167.36 98 166 C97.34 166 96.68 166 96 166 C95.70504639 165.38833984 95.41009277 164.77667969 95.10620117 164.14648438 C92.12694556 158.06584868 88.85643953 152.26624255 85.3125 146.5 C80.70609744 138.94601616 76.3204762 131.30890817 72.21020508 123.47265625 C70.0884698 119.16695697 70.0884698 119.16695697 66 117 C65.53851563 117.81339844 65.07703125 118.62679687 64.6015625 119.46484375 C60.27596306 127.06456293 55.89053 134.62414356 51.41455078 142.13647461 C49.11105915 146.02390594 47.00355045 149.94670774 45 154 C44.23079481 155.30516752 43.44118465 156.5986844 42.625 157.875 C42.20089844 158.54273438 41.77679688 159.21046875 41.33984375 159.8984375 C40.89769531 160.59195313 40.45554687 161.28546875 40 162 C39.06112066 163.49913703 38.12356941 164.99910683 37.1875 166.5 C36.45833333 167.66666667 35.72916667 168.83333333 35 170 C32.10109832 167.30463823 30.17469826 164.82908831 28.375 161.3125 C25.7228422 156.28417036 22.90230901 151.38602941 20 146.5 C17.28195897 141.91133951 14.58753654 137.32376365 12.0625 132.625 C6.45764552 122.19551226 0.36092852 112.02625216 -5.625 101.8125 C-7.43395997 98.71934911 -9.22122837 95.61644617 -10.96875 92.48828125 C-11.31873047 91.86187744 -11.66871094 91.23547363 -12.02929688 90.59008789 C-12.76170484 89.27655141 -13.49216492 87.96192698 -14.22070312 86.64624023 C-16.55285975 82.46779295 -18.98589728 78.36874611 -21.5 74.296875 C-22.09925293 73.31638184 -22.69850586 72.33588867 -23.31591797 71.32568359 C-24.50411021 69.38769554 -25.70589893 67.45796559 -26.92236328 65.53759766 C-30.94541549 58.94217606 -30.94541549 58.94217606 -31.1796875 54.8984375 C-29.49737258 50.76506772 -27.34148386 47.04190303 -25 43.25 C-24.08307701 41.73453006 -23.16639855 40.21891213 -22.25 38.703125 C-21.63898438 37.70780762 -21.63898438 37.70780762 -21.015625 36.69238281 C-19.95534561 34.97467547 -19.95534561 34.97467547 -19 33 C-18.34 33 -17.68 33 -17 33 C-16.89171875 32.27296875 -16.7834375 31.5459375 -16.671875 30.796875 C-15.952613 27.80273782 -14.89324619 25.8419244 -13.25 23.25 C-10.71091288 19.17281203 -8.34601121 15.04588759 -6.078125 10.8125 C-5 9 -5 9 -3 7 C-1.96157435 4.68351201 -0.9578025 2.35096976 0 0 Z " fill="#FCFCFC" transform="translate(165,73)"/>
<path d="M0 0 C21.78 0 43.56 0 66 0 C65.14631951 3.41472195 64.34368656 5.4198463 62.62890625 8.38671875 C62.14156006 9.23484131 61.65421387 10.08296387 61.15209961 10.95678711 C60.3652478 12.30848999 60.3652478 12.30848999 59.5625 13.6875 C58.75921265 15.08077515 58.75921265 15.08077515 57.93969727 16.50219727 C54.07499917 23.19182333 50.16959002 29.85827128 46.21118164 36.49291992 C44.55141626 39.2875556 42.97302965 42.05473182 41.53515625 44.97265625 C41.02855469 45.97167969 40.52195312 46.97070312 40 48 C39.76021423 48.66599716 39.52042847 49.33199432 39.27337646 50.01817322 C38.12447846 52.58433696 37.12291052 54.13356683 35 56 C30.1246079 57.15672509 25.26928383 56.93140208 20.29296875 56.78125 C18.84283066 56.76631865 17.39265207 56.75493583 15.94245911 56.74694824 C12.13554374 56.71648138 8.33109195 56.63797537 4.52514648 56.54931641 C0.63754609 56.46730123 -3.25045471 56.43090395 -7.13867188 56.390625 C-14.76023471 56.30496731 -22.37977149 56.16853692 -30 56 C-29.37677282 52.66108223 -28.6866568 50.04090854 -27.00390625 47.08203125 C-26.61009766 46.38529297 -26.21628906 45.68855469 -25.81054688 44.97070312 C-25.39869141 44.25849609 -24.98683594 43.54628906 -24.5625 42.8125 C-24.15451172 42.08869141 -23.74652344 41.36488281 -23.32617188 40.61914062 C-20.28376962 35.28376962 -20.28376962 35.28376962 -18 33 C-17.30609405 31.36330998 -16.61458109 29.72555169 -15.93701172 28.08203125 C-14.12437025 24.0543589 -11.80459291 20.29985225 -9.5625 16.5 C-8.60532626 14.86466673 -7.6482927 13.22925139 -6.69140625 11.59375 C-6.27060791 10.87896484 -5.84980957 10.16417969 -5.41625977 9.42773438 C-3.59001646 6.29721146 -1.79814184 3.14674821 0 0 Z " fill="#EB034D" transform="translate(99,187)"/>
<path d="M0 0 C6.60866033 3.79783402 10.60456319 8.9598029 13.5625 15.9375 C14.59883793 23.78775982 14.61436589 31.34161045 10.11328125 38.07421875 C5.30497584 43.8514522 -0.25016182 48.36201718 -7.97265625 49.21875 C-15.42624903 49.47034807 -22.83488761 48.95193078 -28.734375 44.015625 C-35.10732026 37.27053695 -37.52467657 31.65206786 -37.875 22.4375 C-37.67480933 15.50289516 -36.37094645 11.08729608 -31.63671875 6.00390625 C-22.71792592 -2.32607308 -11.46783813 -5.24887455 0 0 Z " fill="#F6F6F6" transform="translate(341.4375,273.0625)"/>
<path d="M0 0 C0.66 0 1.32 0 2 0 C2.556875 0.99257812 3.11375 1.98515625 3.6875 3.0078125 C11.07956439 16.17339602 18.56877021 29.28002062 26.14404297 42.34106445 C27.01958814 43.85086156 27.89289809 45.36195771 28.76367188 46.87451172 C29.57849953 48.27535878 30.40768167 49.66796829 31.25195312 51.05126953 C32.22561171 52.66749268 33.12138394 54.33020297 34 56 C33.505 56.99 33.505 56.99 33 58 C12.54 57.67 -7.92 57.34 -29 57 C-29.33 57.99 -29.66 58.98 -30 60 C-31.16599428 55.25728041 -30.9767661 53.00243411 -28.47265625 48.8203125 C-27.92802734 47.8921875 -27.38339844 46.9640625 -26.82226562 46.0078125 C-26.24154297 45.05648437 -25.66082031 44.10515625 -25.0625 43.125 C-24.1972168 41.66320312 -24.1972168 41.66320312 -23.31445312 40.171875 C-21.89096858 37.77195064 -20.4526886 35.38232043 -19 33 C-18.34 33 -17.68 33 -17 33 C-16.89171875 32.27296875 -16.7834375 31.5459375 -16.671875 30.796875 C-15.952613 27.80273782 -14.89324619 25.8419244 -13.25 23.25 C-10.71091288 19.17281203 -8.34601121 15.04588759 -6.078125 10.8125 C-5 9 -5 9 -3 7 C-1.96157435 4.68351201 -0.9578025 2.35096976 0 0 Z " fill="#B1B1B1" transform="translate(165,73)"/>
<path d="M0 0 C3.69399452 1.23133151 3.92308168 2.12719645 5.75 5.4609375 C6.27070068 6.39848877 6.79140137 7.33604004 7.32788086 8.30200195 C7.87968018 9.31609131 8.43147949 10.33018066 9 11.375 C10.16709386 13.48095384 11.33507676 15.58641521 12.50390625 17.69140625 C13.08930176 18.75117676 13.67469727 19.81094727 14.27783203 20.90283203 C16.77992654 25.40262944 19.35112034 29.8607646 21.9375 34.3125 C22.38778564 35.09093262 22.83807129 35.86936523 23.30200195 36.67138672 C26.13976462 41.56473881 29.04523005 46.40937698 32.07421875 51.1875 C33 53 33 53 33 56 C12.21 56 -8.58 56 -30 56 C-29.505 53.03 -29.505 53.03 -29 50 C-28.34 50 -27.68 50 -27 50 C-26.84144531 49.443125 -26.68289062 48.88625 -26.51953125 48.3125 C-25.00614842 43.3626512 -23.12895877 39.34733611 -20.26171875 35.05078125 C-18.48738108 32.16679587 -17.24748826 29.11872064 -15.9921875 25.98046875 C-14.91939405 23.83910545 -13.70503684 22.66230409 -12 21 C-7.53570311 14.29730216 -3.80181813 7.09133452 0 0 Z " fill="#EA034D" transform="translate(232,75)"/>
<path d="M0 0 C0.43828125 0.85078125 0.8765625 1.7015625 1.328125 2.578125 C5.92784149 11.39672123 10.88499223 19.93623975 16.13769531 28.38378906 C16.63881836 29.20073242 17.13994141 30.01767578 17.65625 30.859375 C18.10806641 31.58608398 18.55988281 32.31279297 19.02539062 33.06152344 C20 35 20 35 20 38 C20.66 38 21.32 38 22 38 C23.50519387 40.62214328 25.00431319 43.24744208 26.5 45.875 C26.92925781 46.62136719 27.35851562 47.36773437 27.80078125 48.13671875 C28.20683594 48.85214844 28.61289062 49.56757813 29.03125 50.3046875 C29.40830078 50.96452637 29.78535156 51.62436523 30.17382812 52.30419922 C31 54 31 54 31 56 C9.22 56 -12.56 56 -35 56 C-35.33 55.34 -35.66 54.68 -36 54 C-34.515 53.505 -34.515 53.505 -33 53 C-28.114031 47.34182326 -25.06302015 40.25189559 -21.8046875 33.59765625 C-19.16267302 28.26298626 -16.39578221 22.89207675 -13 18 C-12.34 18 -11.68 18 -11 18 C-10.88398438 17.28070313 -10.76796875 16.56140625 -10.6484375 15.8203125 C-9.97406431 12.88719538 -8.97853901 10.55746823 -7.625 7.875 C-7.20476562 7.02679688 -6.78453125 6.17859375 -6.3515625 5.3046875 C-3.24067797 0 -3.24067797 0 0 0 Z " fill="#B3B3B3" transform="translate(299,187)"/>
<path d="M0 0 C24 0 24 0 32 6 C34.92971834 8.92971834 34.92038523 11.17200642 35.3125 15.25 C34.85087711 20.78947472 32.94791465 25.16666857 28.875 29 C27 30 27 30 25 30 C25.42152344 30.66386719 25.84304688 31.32773437 26.27734375 32.01171875 C26.82519531 32.89472656 27.37304688 33.77773438 27.9375 34.6875 C28.48277344 35.55761719 29.02804687 36.42773438 29.58984375 37.32421875 C30.97167172 39.94624689 31.58480173 42.08310075 32 45 C32.66 45 33.32 45 34 45 C34.495 47.475 34.495 47.475 35 50 C32.03 50 29.06 50 26 50 C25.608125 49.05125 25.21625 48.1025 24.8125 47.125 C24.53019531 46.4959375 24.24789063 45.866875 23.95703125 45.21875 C23.267093 43.61921969 22.64752873 41.98869002 22.07421875 40.34375 C20.95182025 37.50306142 19.9818633 35.3336997 18 33 C14.10459046 31.79126925 11.15140268 31.8999662 7 32 C7 37.61 7 43.22 7 49 C4.69 49 2.38 49 0 49 C0 32.83 0 16.66 0 0 Z " fill="#101010" transform="translate(245,272)"/>
<path d="M0 0 C2.31 0 4.62 0 7 0 C10.41326622 7.79967643 13.29628371 15.64961682 15.88671875 23.75 C16.86790539 26.88194642 16.86790539 26.88194642 18.14453125 29.1875 C19 31 19 31 19 35 C19.66 35 20.32 35 21 35 C21.16290527 34.42386963 21.32581055 33.84773926 21.49365234 33.25415039 C23.54707326 26.18599322 26.02162401 19.3196504 28.625 12.4375 C29.03234375 11.34630859 29.4396875 10.25511719 29.859375 9.13085938 C32.87046547 1.12953453 32.87046547 1.12953453 34 0 C36.33297433 -0.04092937 38.66705225 -0.04241723 41 0 C41.98848711 4.88698476 42.96658464 9.77590287 43.93579102 14.66674805 C44.26574001 16.32452097 44.59834726 17.98176741 44.93383789 19.63842773 C46.91592787 29.43629254 48.57113462 38.99052843 49 49 C46.69 49 44.38 49 42 49 C39.05146184 37.27441801 37.3061207 26.0917676 37 14 C36.34 14 35.68 14 35 14 C34.731875 15.27875 34.46375 16.5575 34.1875 17.875 C32.46275589 25.57001217 30.23695625 32.78987023 26.91796875 39.94921875 C25.74376059 42.57244975 24.84463385 45.25494 24 48 C21.69 48 19.38 48 17 48 C12.60546875 36.28125 12.60546875 36.28125 11.80541992 34.14257812 C11.26586844 32.70726324 10.72171112 31.27367178 10.1730957 29.84179688 C8.42070277 25.24880127 7.10894719 20.77700328 6 16 C5.34 16 4.68 16 4 16 C3.87882812 16.98097656 3.75765625 17.96195312 3.6328125 18.97265625 C3.18851671 22.55834248 2.73902558 26.14335549 2.28662109 29.72802734 C2.09867367 31.21783889 1.91147293 32.70774487 1.72509766 34.19775391 C1.46641154 36.25734778 1.20267311 38.31623251 0.9375 40.375 C0.78152344 41.59960938 0.62554687 42.82421875 0.46484375 44.0859375 C0 47 0 47 -1 49 C-3.31 49 -5.62 49 -8 49 C-7.52137755 39.52863943 -6.16716967 30.38433587 -4.41601562 21.08496094 C-3.99423053 18.8443514 -3.58229412 16.6020918 -3.171875 14.359375 C-1.16508131 3.49524393 -1.16508131 3.49524393 0 0 Z " fill="#111111" transform="translate(53,272)"/>
<path d="M0 0 C6.60866033 3.79783402 10.60456319 8.9598029 13.5625 15.9375 C14.59883793 23.78775982 14.61436589 31.34161045 10.11328125 38.07421875 C5.30497584 43.8514522 -0.25016182 48.36201718 -7.97265625 49.21875 C-15.42624903 49.47034807 -22.83488761 48.95193078 -28.734375 44.015625 C-35.10732026 37.27053695 -37.52467657 31.65206786 -37.875 22.4375 C-37.67480933 15.50289516 -36.37094645 11.08729608 -31.63671875 6.00390625 C-22.71792592 -2.32607308 -11.46783813 -5.24887455 0 0 Z M-27.88671875 12.8359375 C-30.41679623 17.3279347 -31.38876185 21.81605994 -30.4375 26.9375 C-28.37818934 33.59997567 -25.68804893 37.44893075 -19.609375 41.0078125 C-14.79328263 43.06937722 -9.00452269 42.86664121 -4.1171875 41.09765625 C0.94766323 38.2378451 4.4385766 34.36965432 6.5625 28.9375 C7.71725488 23.18416374 6.45495524 18.15976571 3.90625 12.953125 C1.12703178 8.78429767 -2.70712038 6.51429321 -7.4375 4.9375 C-15.93787641 3.72535246 -22.56377457 5.8630241 -27.88671875 12.8359375 Z " fill="#0E0E0E" transform="translate(341.4375,273.0625)"/>
<path d="M0 0 C9.9 0 19.8 0 30 0 C30 2.31 30 4.62 30 7 C22.41 7 14.82 7 7 7 C7 11.62 7 16.24 7 21 C13.27 21 19.54 21 26 21 C26 23.31 26 25.62 26 28 C19.73 28 13.46 28 7 28 C7 32.95 7 37.9 7 43 C14.59 43 22.18 43 30 43 C30 45.31 30 47.62 30 50 C20.1 50 10.2 50 0 50 C0 33.5 0 17 0 0 Z " fill="#0F0F0F" transform="translate(129,272)"/>
<path d="M0 0 C13.2 0 26.4 0 40 0 C40 2.31 40 4.62 40 7 C34.39 7 28.78 7 23 7 C23 20.86 23 34.72 23 49 C20.69 49 18.38 49 16 49 C16 35.14 16 21.28 16 7 C10.72 7 5.44 7 0 7 C0 4.69 0 2.38 0 0 Z " fill="#0F0F0F" transform="translate(181,272)"/>
<path d="M0 0 C3.5578125 -0.12375 3.5578125 -0.12375 7.1875 -0.25 C7.92508545 -0.28641602 8.6626709 -0.32283203 9.42260742 -0.36035156 C12.95004161 -0.41942001 14.91394328 -0.05156573 17.953125 1.76953125 C20 4 20 4 20.5625 7.9375 C20.3056303 11.98697534 18.98433467 14.18619874 16 17 C10.83608171 18.7213061 5.40708764 18.05353552 0 18 C0 12.06 0 6.12 0 0 Z " fill="#F5F5F5" transform="translate(252,279)"/>
<path d="M0 0 C4.18186522 0.04978411 5.87365916 0.14340564 9.5 2.375 C11.41279563 5.65407823 11.80892019 7.59941247 11.81640625 11.3125 C10.94408076 14.488968 9.64833904 16.12389341 7.25 18.375 C3.796875 18.86328125 3.796875 18.86328125 0 18.6875 C-1.26328125 18.64238281 -2.5265625 18.59726562 -3.828125 18.55078125 C-4.79234375 18.49277344 -5.7565625 18.43476563 -6.75 18.375 C-6.77684312 15.56243719 -6.79676188 12.75012759 -6.8125 9.9375 C-6.82087891 9.13505859 -6.82925781 8.33261719 -6.83789062 7.50585938 C-6.8465143 5.46204779 -6.8022815 3.41816098 -6.75 1.375 C-4.95690039 -0.41809961 -2.42624022 0.07692957 0 0 Z " fill="#E1497B" transform="translate(50.75,331.625)"/>
<path d="M0 0 C3.42999512 0.0589684 5.20429959 0.29147781 8.375 1.75 C10.75168946 4.99814227 10.97773338 7.15368131 10.72265625 11.1171875 C10.25 13.3125 10.25 13.3125 8.3125 16.375 C4.20073536 18.97632048 0.99142213 19.36710203 -3.75 18.3125 C-6.8125 16.25 -6.8125 16.25 -8.75 13.3125 C-9.46665654 8.29590424 -8.73766868 5.3757294 -5.75 1.3125 C-4.10962605 -0.32787395 -2.25523159 0.06338669 0 0 Z " fill="#D2255C" transform="translate(213.75,331.6875)"/>
<path d="M0 0 C1.39456452 0.00667256 2.78911118 0.01863093 4.18359375 0.03515625 C4.89451172 0.03966797 5.60542969 0.04417969 6.33789062 0.04882812 C8.09899388 0.06064761 9.86005411 0.07858362 11.62109375 0.09765625 C11.95109375 1.74765625 12.28109375 3.39765625 12.62109375 5.09765625 C8.66109375 5.09765625 4.70109375 5.09765625 0.62109375 5.09765625 C0.62109375 5.75765625 0.62109375 6.41765625 0.62109375 7.09765625 C3.92109375 7.09765625 7.22109375 7.09765625 10.62109375 7.09765625 C10.62109375 8.74765625 10.62109375 10.39765625 10.62109375 12.09765625 C7.32109375 12.09765625 4.02109375 12.09765625 0.62109375 12.09765625 C0.62109375 12.75765625 0.62109375 13.41765625 0.62109375 14.09765625 C4.25109375 14.09765625 7.88109375 14.09765625 11.62109375 14.09765625 C11.62109375 15.41765625 11.62109375 16.73765625 11.62109375 18.09765625 C9.32999778 18.1784129 7.03810108 18.23673356 4.74609375 18.28515625 C2.83183594 18.33736328 2.83183594 18.33736328 0.87890625 18.390625 C-0.19617188 18.29394531 -1.27125 18.19726562 -2.37890625 18.09765625 C-4.85490158 14.38366325 -4.6162995 12.39047716 -4.56640625 7.97265625 C-4.55996094 6.71195312 -4.55351562 5.45125 -4.546875 4.15234375 C-4.32542327 0.12501223 -4.32542327 0.12501223 0 0 Z " fill="#F489AD" transform="translate(146.37890625,331.90234375)"/>
<path d="M0 0 C1.051875 -0.01675781 2.10375 -0.03351563 3.1875 -0.05078125 C6 0.3125 6 0.3125 7.85546875 1.578125 C9.95553094 4.76047179 9.29569266 7.58677254 9 11.3125 C7 13.3125 7 13.3125 4.1796875 13.5078125 C3.08914062 13.48460937 1.99859375 13.46140625 0.875 13.4375 C-0.22070312 13.41945313 -1.31640625 13.40140625 -2.4453125 13.3828125 C-3.28835937 13.35960937 -4.13140625 13.33640625 -5 13.3125 C-5 14.6325 -5 15.9525 -5 17.3125 C-6.32 17.3125 -7.64 17.3125 -9 17.3125 C-9.08076963 14.85351345 -9.14037143 12.39716258 -9.1875 9.9375 C-9.21263672 9.23882812 -9.23777344 8.54015625 -9.26367188 7.8203125 C-9.29296875 5.7890625 -9.29296875 5.7890625 -9 2.3125 C-5.55324591 0.01466394 -4.06671888 0.01495117 0 0 Z " fill="#F682A9" transform="translate(249,332.6875)"/>
<path d="M0 0 C1.39456452 0.00667256 2.78911118 0.01863093 4.18359375 0.03515625 C4.89451172 0.03966797 5.60542969 0.04417969 6.33789062 0.04882812 C8.09899388 0.06064761 9.86005411 0.07858362 11.62109375 0.09765625 C11.62109375 1.41765625 11.62109375 2.73765625 11.62109375 4.09765625 C7.66109375 4.09765625 3.70109375 4.09765625 -0.37890625 4.09765625 C-0.37890625 5.08765625 -0.37890625 6.07765625 -0.37890625 7.09765625 C3.25109375 7.09765625 6.88109375 7.09765625 10.62109375 7.09765625 C10.62109375 8.74765625 10.62109375 10.39765625 10.62109375 12.09765625 C7.32109375 12.09765625 4.02109375 12.09765625 0.62109375 12.09765625 C0.62109375 12.75765625 0.62109375 13.41765625 0.62109375 14.09765625 C4.25109375 14.09765625 7.88109375 14.09765625 11.62109375 14.09765625 C11.62109375 15.41765625 11.62109375 16.73765625 11.62109375 18.09765625 C9.32999778 18.1784129 7.03810108 18.23673356 4.74609375 18.28515625 C2.83183594 18.33736328 2.83183594 18.33736328 0.87890625 18.390625 C-0.19617188 18.29394531 -1.27125 18.19726562 -2.37890625 18.09765625 C-4.85490158 14.38366325 -4.6162995 12.39047716 -4.56640625 7.97265625 C-4.55996094 6.71195312 -4.55351562 5.45125 -4.546875 4.15234375 C-4.32542327 0.12501223 -4.32542327 0.12501223 0 0 Z " fill="#DD4173" transform="translate(277.37890625,331.90234375)"/>
<path d="M0 0 C5.28 0 10.56 0 16 0 C16 1.32 16 2.64 16 4 C12.04 4 8.08 4 4 4 C4 4.99 4 5.98 4 7 C7.63 7 11.26 7 15 7 C15 8.65 15 10.3 15 12 C11.37 12 7.74 12 4 12 C4 12.66 4 13.32 4 14 C7.96 14 11.92 14 16 14 C16 15.32 16 16.64 16 18 C13.70890403 18.08075665 11.41700733 18.13907731 9.125 18.1875 C7.21074219 18.23970703 7.21074219 18.23970703 5.2578125 18.29296875 C4.18273437 18.19628906 3.10765625 18.09960938 2 18 C-0.45598077 14.31602884 -0.2271532 11.55276192 -0.125 7.3125 C-0.08375 4.899375 -0.0425 2.48625 0 0 Z " fill="#D73469" transform="translate(78,332)"/>
<path d="M0 0 C0.69416016 -0.01224609 1.38832031 -0.02449219 2.10351562 -0.03710938 C3.92470901 -0.04239842 5.7453692 0.06580793 7.5625 0.1875 C9.5625 2.1875 9.5625 2.1875 9.9375 5 C9.48265223 8.86620605 8.10545708 10.32667328 5.5625 13.1875 C5.5625 13.8475 5.5625 14.5075 5.5625 15.1875 C6.8825 15.8475 8.2025 16.5075 9.5625 17.1875 C9.5625 17.5175 9.5625 17.8475 9.5625 18.1875 C7.375 18.5 7.375 18.5 4.5625 18.1875 C1.9375 15.75 1.9375 15.75 -0.4375 13.1875 C-1.4275 12.8575 -2.4175 12.5275 -3.4375 12.1875 C-3.4375 11.1975 -3.4375 10.2075 -3.4375 9.1875 C-0.4675 9.1875 2.5025 9.1875 5.5625 9.1875 C5.5625 7.5375 5.5625 5.8875 5.5625 4.1875 C2.2625 4.1875 -1.0375 4.1875 -4.4375 4.1875 C-4.4375 8.8075 -4.4375 13.4275 -4.4375 18.1875 C-5.7575 18.1875 -7.0775 18.1875 -8.4375 18.1875 C-8.46434312 15.37493719 -8.48426188 12.56262759 -8.5 9.75 C-8.50837891 8.94755859 -8.51675781 8.14511719 -8.52539062 7.31835938 C-8.5340143 5.27454779 -8.4897815 3.23066098 -8.4375 1.1875 C-6.45630645 -0.79369355 -2.70304936 0.00249589 0 0 Z " fill="#D5245D" transform="translate(313.4375,331.8125)"/>
<path d="M0 0 C1.77503906 0.03480469 1.77503906 0.03480469 3.5859375 0.0703125 C5.36871094 0.09738281 5.36871094 0.09738281 7.1875 0.125 C8.10273438 0.14820313 9.01796875 0.17140625 9.9609375 0.1953125 C9.9609375 1.1853125 9.9609375 2.1753125 9.9609375 3.1953125 C6.0009375 3.1953125 2.0409375 3.1953125 -2.0390625 3.1953125 C-2.0390625 4.8453125 -2.0390625 6.4953125 -2.0390625 8.1953125 C-1.19601562 8.16050781 -0.35296875 8.12570312 0.515625 8.08984375 C1.61132812 8.06277344 2.70703125 8.03570312 3.8359375 8.0078125 C5.47175781 7.95560547 5.47175781 7.95560547 7.140625 7.90234375 C8.07132812 7.99902344 9.00203125 8.09570312 9.9609375 8.1953125 C11.9609375 11.1953125 11.9609375 11.1953125 11.7109375 13.7578125 C10.9609375 16.1953125 10.9609375 16.1953125 8.9609375 18.1953125 C5.703125 18.390625 5.703125 18.390625 1.8359375 18.3203125 C-0.08605469 18.29324219 -0.08605469 18.29324219 -2.046875 18.265625 C-3.52800781 18.23082031 -3.52800781 18.23082031 -5.0390625 18.1953125 C-5.0390625 17.2053125 -5.0390625 16.2153125 -5.0390625 15.1953125 C-0.4190625 15.1953125 4.2009375 15.1953125 8.9609375 15.1953125 C8.9609375 13.8753125 8.9609375 12.5553125 8.9609375 11.1953125 C8.11789062 11.21851563 7.27484375 11.24171875 6.40625 11.265625 C4.76269531 11.29269531 4.76269531 11.29269531 3.0859375 11.3203125 C1.99539063 11.34351563 0.90484375 11.36671875 -0.21875 11.390625 C-3.0390625 11.1953125 -3.0390625 11.1953125 -5.0390625 9.1953125 C-5.2890625 5.6953125 -5.2890625 5.6953125 -5.0390625 2.1953125 C-3.0390625 0.1953125 -3.0390625 0.1953125 0 0 Z " fill="#D62961" transform="translate(344.0390625,331.8046875)"/>
<path d="M0 0 C1.19109375 0.00773437 1.19109375 0.00773437 2.40625 0.015625 C3.2003125 0.01046875 3.994375 0.0053125 4.8125 0 C6.90625 0.265625 6.90625 0.265625 8.90625 2.265625 C9.171875 4.140625 9.171875 4.140625 9.15625 6.265625 C9.16140625 6.966875 9.1665625 7.668125 9.171875 8.390625 C8.90625 10.265625 8.90625 10.265625 6.90625 12.265625 C4.5234375 12.4609375 4.5234375 12.4609375 1.78125 12.390625 C0.41613281 12.36355469 0.41613281 12.36355469 -0.9765625 12.3359375 C-1.67523438 12.31273437 -2.37390625 12.28953125 -3.09375 12.265625 C-4.20820498 10.03671505 -4.25855286 8.73507394 -4.28125 6.265625 C-4.29542969 5.564375 -4.30960938 4.863125 -4.32421875 4.140625 C-3.97008346 1.2595243 -2.82352976 0.358209 0 0 Z " fill="#FEF9FC" transform="translate(212.09375,334.734375)"/>
<path d="M0 0 C8.625 -0.25 8.625 -0.25 12 2 C12.36328125 3.875 12.36328125 3.875 12.3125 6 C12.30863281 6.70125 12.30476563 7.4025 12.30078125 8.125 C12 10 12 10 10 12 C7.6171875 12.1953125 7.6171875 12.1953125 4.875 12.125 C2.461875 12.063125 2.461875 12.063125 0 12 C0 8.04 0 4.08 0 0 Z " fill="#FEEDF5" transform="translate(47,335)"/>
<path d="M0 0 C0.99 0 1.98 0 3 0 C2.26733512 4.08641257 0.31342025 7.59474154 -1.5625 11.25 C-1.89185547 11.8996875 -2.22121094 12.549375 -2.56054688 13.21875 C-3.37007565 14.81434294 -4.18455042 16.40742483 -5 18 C-5.99 18 -6.98 18 -8 18 C-9.17133058 15.54379149 -10.33721722 13.08525083 -11.5 10.625 C-11.83386719 9.92632812 -12.16773437 9.22765625 -12.51171875 8.5078125 C-15 3.2265625 -15 3.2265625 -15 1 C-13.1875 1.1875 -13.1875 1.1875 -11 2 C-8.85498432 4.93946593 -7.87002672 7.51989314 -7 11 C-6.34 11.33 -5.68 11.66 -5 12 C-4.731875 11.13375 -4.46375 10.2675 -4.1875 9.375 C-3.02888013 6.08208036 -1.61790161 3.08872125 0 0 Z " fill="#D7386B" transform="translate(124,332)"/>
<path d="M0 0 C21.78 0 43.56 0 66 0 C65.67 0.99 65.34 1.98 65 3 C65 2.34 65 1.68 65 1 C43.88 1 22.76 1 1 1 C1 3.31 1 5.62 1 8 C-0.375 9.9375 -0.375 9.9375 -2 11 C-2.66 11 -3.32 11 -4 11 C-4 11.66 -4 12.32 -4 13 C-4.66 13 -5.32 13 -6 13 C-4.53528034 7.99554115 -2.70958719 4.74177759 0 0 Z " fill="#B10F43" transform="translate(99,187)"/>
<path d="M0 0 C1.0725 -0.01417969 2.145 -0.02835937 3.25 -0.04296875 C6 0.1875 6 0.1875 8 2.1875 C8.265625 4.0625 8.265625 4.0625 8.25 6.1875 C8.25515625 6.88875 8.2603125 7.59 8.265625 8.3125 C8 10.1875 8 10.1875 6 12.1875 C3.6171875 12.3828125 3.6171875 12.3828125 0.875 12.3125 C-0.49011719 12.28542969 -0.49011719 12.28542969 -1.8828125 12.2578125 C-2.58148438 12.23460937 -3.28015625 12.21140625 -4 12.1875 C-4 11.5275 -4 10.8675 -4 10.1875 C-1.03 10.1875 1.94 10.1875 5 10.1875 C5.04254356 8.18795254 5.04080783 6.18708364 5 4.1875 C3.99163938 2.95482652 3.99163938 2.95482652 1.93359375 3.08984375 C-0.37760417 3.12239583 -2.68880208 3.15494792 -5 3.1875 C-5.33 7.4775 -5.66 11.7675 -6 16.1875 C-6.66 16.1875 -7.32 16.1875 -8 16.1875 C-8 11.2375 -8 6.2875 -8 1.1875 C-5.27457733 -0.17521133 -3.03912726 0.01826399 0 0 Z " fill="#D02159" transform="translate(249,332.8125)"/>
<path d="M0 0 C4.29 0 8.58 0 13 0 C13 0.33 13 0.66 13 1 C9.04 1 5.08 1 1 1 C1 1.99 1 2.98 1 4 C4.63 4 8.26 4 12 4 C12 5.65 12 7.3 12 9 C8.37 9 4.74 9 1 9 C1 9.66 1 10.32 1 11 C4.96 11 8.92 11 13 11 C13 11.33 13 11.66 13 12 C8.71 12 4.42 12 0 12 C0 8.04 0 4.08 0 0 Z " fill="#FA9DBF" transform="translate(81,335)"/>
<path d="M0 0 C6.27 0 12.54 0 19 0 C19 0.33 19 0.66 19 1 C13.39 1 7.78 1 2 1 C2 4.96 2 8.92 2 13 C3.50240234 12.98259766 3.50240234 12.98259766 5.03515625 12.96484375 C6.37760228 12.95545602 7.72005036 12.94635688 9.0625 12.9375 C10.37347656 12.92589844 11.68445313 12.91429687 13.03515625 12.90234375 C16.8163519 12.99547665 20.27920707 13.38551274 24 14 C24 16.31 24 18.62 24 21 C23.67 21 23.34 21 23 21 C23 19.02 23 17.04 23 15 C15.41 15 7.82 15 0 15 C0 10.05 0 5.1 0 0 Z " fill="#B8B8B8" transform="translate(136,300)"/>
<path d="M0 0 C2 1.8125 2 1.8125 4 4 C4 4.99 4 5.98 4 7 C-16.79 7 -37.58 7 -59 7 C-58.67 5.02 -58.34 3.04 -58 1 C-57.34 1 -56.68 1 -56 1 C-56.33 2.65 -56.66 4.3 -57 6 C-28.785 5.505 -28.785 5.505 0 5 C0 3.35 0 1.7 0 0 Z " fill="#C01048" transform="translate(261,124)"/>
<path d="M0 0 C1.39456452 0.00667256 2.78911118 0.01863093 4.18359375 0.03515625 C4.89451172 0.03966797 5.60542969 0.04417969 6.33789062 0.04882812 C8.09899388 0.06064761 9.86005411 0.07858362 11.62109375 0.09765625 C11.95109375 0.75765625 12.28109375 1.41765625 12.62109375 2.09765625 C7.67109375 2.09765625 2.72109375 2.09765625 -2.37890625 2.09765625 C-2.70890625 7.04765625 -3.03890625 11.99765625 -3.37890625 17.09765625 C-2.71890625 17.09765625 -2.05890625 17.09765625 -1.37890625 17.09765625 C-1.37890625 12.47765625 -1.37890625 7.85765625 -1.37890625 3.09765625 C2.58109375 3.09765625 6.54109375 3.09765625 10.62109375 3.09765625 C10.62109375 4.74765625 10.62109375 6.39765625 10.62109375 8.09765625 C10.29109375 6.77765625 9.96109375 5.45765625 9.62109375 4.09765625 C6.32109375 4.09765625 3.02109375 4.09765625 -0.37890625 4.09765625 C-0.37890625 8.71765625 -0.37890625 13.33765625 -0.37890625 18.09765625 C-1.69890625 18.09765625 -3.01890625 18.09765625 -4.37890625 18.09765625 C-4.40574937 15.28509344 -4.42566813 12.47278384 -4.44140625 9.66015625 C-4.44978516 8.85771484 -4.45816406 8.05527344 -4.46679688 7.22851562 C-4.47542055 5.18470404 -4.43118775 3.14081723 -4.37890625 1.09765625 C-3.37890625 0.09765625 -3.37890625 0.09765625 0 0 Z " fill="#E7628D" transform="translate(309.37890625,331.90234375)"/>
<path d="M0 0 C4.62 0 9.24 0 14 0 C14 0.33 14 0.66 14 1 C10.04 1 6.08 1 2 1 C2.33 4.63 2.66 8.26 3 12 C6.96 12.33 10.92 12.66 15 13 C15 13.99 15 14.98 15 16 C12.68756208 16.02685412 10.3750373 16.04632841 8.0625 16.0625 C6.77472656 16.07410156 5.48695313 16.08570313 4.16015625 16.09765625 C1 16 1 16 0 15 C-0.07313567 12.46950598 -0.09247527 9.96695163 -0.0625 7.4375 C-0.05798828 6.72658203 -0.05347656 6.01566406 -0.04882812 5.28320312 C-0.03700864 3.52209987 -0.01907263 1.76103964 0 0 Z " fill="#D42861" transform="translate(143,334)"/>
<path d="M0 0 C0.33 0.99 0.66 1.98 1 3 C4.63 3 8.26 3 12 3 C12 4.65 12 6.3 12 8 C8.7 8 5.4 8 2 8 C2 8.66 2 9.32 2 10 C5.63 10 9.26 10 13 10 C13 10.33 13 10.66 13 11 C11.02090602 11.02686553 9.04171029 11.04633375 7.0625 11.0625 C5.96035156 11.07410156 4.85820312 11.08570313 3.72265625 11.09765625 C1 11 1 11 0 10 C-0.07205511 8.31391034 -0.08386068 6.62499341 -0.0625 4.9375 C-0.05347656 4.01839844 -0.04445313 3.09929687 -0.03515625 2.15234375 C-0.02355469 1.44207031 -0.01195312 0.73179687 0 0 Z " fill="#F9A1C0" transform="translate(276,336)"/>
<path d="M0 0 C0.99 0.495 0.99 0.495 2 1 C4.06223352 1.12048151 6.12828629 1.17740927 8.19384766 1.20532227 C10.14564438 1.2352401 10.14564438 1.2352401 12.13687134 1.26576233 C13.5626005 1.28274673 14.98833093 1.29962553 16.4140625 1.31640625 C17.86852613 1.33697521 19.32298377 1.35797166 20.7774353 1.37937927 C24.60786088 1.43460604 28.43834045 1.4840126 32.26885986 1.53222656 C36.1766847 1.5824372 40.084431 1.63812554 43.9921875 1.69335938 C51.66139185 1.80094833 59.33066145 1.90239162 67 2 C66.67 2.66 66.34 3.32 66 4 C35.805 3.505 35.805 3.505 5 3 C4.67 3.99 4.34 4.98 4 6 C2.62437146 4.71034824 1.29233607 3.37310707 0 2 C0 1.34 0 0.68 0 0 Z " fill="#DCDCDC" transform="translate(230,185)"/>
<path d="M0 0 C21.12 0 42.24 0 64 0 C63 4 63 4 61 7 C61 5.02 61 3.04 61 1 C40.87 1.33 20.74 1.66 0 2 C0 1.34 0 0.68 0 0 Z " fill="#DD0B4E" transform="translate(100,188)"/>
<path d="M0 0 C0.495 1.485 0.495 1.485 1 3 C-20.12 3 -41.24 3 -63 3 C-63.33 3.66 -63.66 4.32 -64 5 C-64.66 3.68 -65.32 2.36 -66 1 C-33.33 1.495 -33.33 1.495 0 2 C0 1.34 0 0.68 0 0 Z " fill="#69051D" transform="translate(265,129)"/>
<path d="M0 0 C0.66 0 1.32 0 2 0 C2 4.62 2 9.24 2 14 C6.29 14 10.58 14 15 14 C15 14.99 15 15.98 15 17 C10.05 17 5.1 17 0 17 C0 11.39 0 5.78 0 0 Z " fill="#D32B62" transform="translate(175,333)"/>
<path d="M0 0 C1.77503906 0.03480469 1.77503906 0.03480469 3.5859375 0.0703125 C5.36871094 0.09738281 5.36871094 0.09738281 7.1875 0.125 C8.10273438 0.14820313 9.01796875 0.17140625 9.9609375 0.1953125 C9.9609375 1.1853125 9.9609375 2.1753125 9.9609375 3.1953125 C6.0009375 3.1953125 2.0409375 3.1953125 -2.0390625 3.1953125 C-2.0390625 5.1753125 -2.0390625 7.1553125 -2.0390625 9.1953125 C1.2609375 9.5253125 4.5609375 9.8553125 7.9609375 10.1953125 C7.9609375 10.5253125 7.9609375 10.8553125 7.9609375 11.1953125 C6.16959772 11.24923243 4.37779851 11.28806821 2.5859375 11.3203125 C1.58820313 11.34351563 0.59046875 11.36671875 -0.4375 11.390625 C-3.0390625 11.1953125 -3.0390625 11.1953125 -5.0390625 9.1953125 C-5.2890625 5.6953125 -5.2890625 5.6953125 -5.0390625 2.1953125 C-3.0390625 0.1953125 -3.0390625 0.1953125 0 0 Z " fill="#DA3E70" transform="translate(344.0390625,331.8046875)"/>
<path d="M0 0 C10.7421875 -0.1953125 10.7421875 -0.1953125 14 0 C14.66 0.66 15.32 1.32 16 2 C15.625 4.125 15.625 4.125 15 6 C14.525625 5.360625 14.05125 4.72125 13.5625 4.0625 C9.82282844 1.05252045 6.74690358 1.27922962 2 1 C2.33 4.96 2.66 8.92 3 13 C5.64 13.33 8.28 13.66 11 14 C11 14.33 11 14.66 11 15 C7.37 15 3.74 15 0 15 C0 10.05 0 5.1 0 0 Z " fill="#D11A55" transform="translate(45,334)"/>
<path d="M0 0 C1.19109375 0.00773437 1.19109375 0.00773437 2.40625 0.015625 C3.2003125 0.01046875 3.994375 0.0053125 4.8125 0 C6.90625 0.265625 6.90625 0.265625 8.90625 2.265625 C9.17616906 4.95401885 8.99362357 7.55704436 8.90625 10.265625 C8.57625 10.265625 8.24625 10.265625 7.90625 10.265625 C7.57625 7.955625 7.24625 5.645625 6.90625 3.265625 C4.59625 3.265625 2.28625 3.265625 -0.09375 3.265625 C-0.42375 5.575625 -0.75375 7.885625 -1.09375 10.265625 C1.54625 10.595625 4.18625 10.925625 6.90625 11.265625 C6.90625 11.595625 6.90625 11.925625 6.90625 12.265625 C3.60625 12.265625 0.30625 12.265625 -3.09375 12.265625 C-4.20820498 10.03671505 -4.25855286 8.73507394 -4.28125 6.265625 C-4.29542969 5.564375 -4.30960938 4.863125 -4.32421875 4.140625 C-3.97008346 1.2595243 -2.82352976 0.358209 0 0 Z " fill="#FDB3CF" transform="translate(212.09375,334.734375)"/>
<path d="M0 0 C3.3 0 6.6 0 10 0 C10 1.65 10 3.3 10 5 C7.03 5 4.06 5 1 5 C1 5.99 1 6.98 1 8 C2.98 8.495 2.98 8.495 5 9 C4.34 9.66 3.68 10.32 3 11 C3 10.34 3 9.68 3 9 C2.01 9 1.02 9 0 9 C0 6.03 0 3.06 0 0 Z " fill="#FED9EB" transform="translate(309,336)"/>
<path d="M0 0 C4.76862544 -0.33334081 8.72195437 -0.58790099 13.125 1.4375 C15.52039545 4.71120711 15.52228193 6.91085182 15.46875 10.87890625 C14.90678419 13.42180154 13.97297779 14.35760094 12 16 C11.34 15.34 10.68 14.68 10 14 C10.33 13.67 10.66 13.34 11 13 C11.60032948 7.83207826 11.60032948 7.83207826 9.77734375 3.25390625 C7.47764591 1.63148206 6.09804503 1.69138935 3.3125 1.8125 C2.50425781 1.83957031 1.69601563 1.86664063 0.86328125 1.89453125 C0.24839844 1.92933594 -0.36648437 1.96414063 -1 2 C-0.67 1.34 -0.34 0.68 0 0 Z " fill="#DB366A" transform="translate(209,332)"/>
<path d="M0 0 C2.97 0 5.94 0 9 0 C9.33 1.65 9.66 3.3 10 5 C6.7 5 3.4 5 0 5 C0 3.35 0 1.7 0 0 Z " fill="#FEF5FB" transform="translate(244,337)"/>
<path d="M0 0 C0.99 0.33 1.98 0.66 3 1 C3.6875 3.0625 3.6875 3.0625 4 5 C2.68 4.67 1.36 4.34 0 4 C-0.66 5.65 -1.32 7.3 -2 9 C-2.66 9 -3.32 9 -4 9 C-4.185625 10.36125 -4.185625 10.36125 -4.375 11.75 C-4.92109677 14.58970323 -5.57263803 16.52590591 -7 19 C-7.99 19 -8.98 19 -10 19 C-8.40376856 14.60616294 -6.21975667 10.71004193 -3.875 6.6875 C-3.50246094 6.04232422 -3.12992188 5.39714844 -2.74609375 4.73242188 C-1.83367787 3.15324055 -0.91724491 1.57638136 0 0 Z " fill="#AD0A3E" transform="translate(232,75)"/>
<path d="M0 0 C2.97 0 5.94 0 9 0 C9.33 0.66 9.66 1.32 10 2 C7.36 2 4.72 2 2 2 C2 4.97 2 7.94 2 11 C4.64 11 7.28 11 10 11 C10 11.33 10 11.66 10 12 C6.7 12 3.4 12 0 12 C0 8.04 0 4.08 0 0 Z " fill="#FE9CBE" transform="translate(47,335)"/>
<path d="M0 0 C0.99 0 1.98 0 3 0 C2.27623543 3.49403583 0.93714794 6.51998905 -0.5625 9.75 C-1.01753906 10.73484375 -1.47257812 11.7196875 -1.94140625 12.734375 C-2.29074219 13.48203125 -2.64007813 14.2296875 -3 15 C-3.33 14.34 -3.66 13.68 -4 13 C-4.99 12.67 -5.98 12.34 -7 12 C-6.34 12 -5.68 12 -5 12 C-4.731875 11.13375 -4.46375 10.2675 -4.1875 9.375 C-3.02888013 6.08208036 -1.61790161 3.08872125 0 0 Z " fill="#D8386D" transform="translate(124,332)"/>
<path d="M0 0 C1.40907283 2.81814566 0.50872691 4.17277204 -0.4375 7.125 C-0.72496094 8.03507812 -1.01242188 8.94515625 -1.30859375 9.8828125 C-1.53675781 10.58148438 -1.76492187 11.28015625 -2 12 C-2.66 12 -3.32 12 -4 12 C-4.2475 12.928125 -4.495 13.85625 -4.75 14.8125 C-6.06454245 18.16458325 -6.97963384 19.1877803 -10 21 C-8.40614269 15.40206214 -6.43906774 10.66179225 -3.18359375 5.82421875 C-1.96267614 3.94247445 -0.96835641 2.02149979 0 0 Z " fill="#AF083C" transform="translate(215,104)"/>
<path d="M0 0 C0.66 0.33 1.32 0.66 2 1 C-0.31 4.96 -2.62 8.92 -5 13 C-6.0554439 8.77822438 -6.07636784 8.369979 -4.1875 4.8125 C-3.83042969 4.11769531 -3.47335938 3.42289063 -3.10546875 2.70703125 C-2 1 -2 1 0 0 Z " fill="#D2094A" transform="translate(159,195)"/>
<path d="M0 0 C0.66 0 1.32 0 2 0 C2.33 3.96 2.66 7.92 3 12 C2.01 11.01 1.02 10.02 0 9 C-0.33 9.66 -0.66 10.32 -1 11 C-1.66 11 -2.32 11 -3 11 C-2.01 7.37 -1.02 3.74 0 0 Z " fill="#C3C3C3" transform="translate(88,286)"/>
<path d="M0 0 C0.66 0.33 1.32 0.66 2 1 C0.95199219 2.01320313 0.95199219 2.01320313 -0.1171875 3.046875 C-1.02726562 3.93890625 -1.93734375 4.8309375 -2.875 5.75 C-3.77992188 6.63171875 -4.68484375 7.5134375 -5.6171875 8.421875 C-7.64542996 10.61636684 -8.88880413 12.2667136 -10 15 C-10.33 14.34 -10.66 13.68 -11 13 C-8.35365287 7.26624788 -4.97590933 3.81579564 0 0 Z " fill="#3A3A3A" transform="translate(316,274)"/>
<path d="M0 0 C1.32 0 2.64 0 4 0 C4.0825 0.61875 4.165 1.2375 4.25 1.875 C4.81258459 4.18437567 4.81258459 4.18437567 7.0625 5.25 C7.701875 5.4975 8.34125 5.745 9 6 C9 6.33 9 6.66 9 7 C5.64708882 7.37254569 4.3961577 7.31050198 1.6875 5.1875 C0 3 0 3 0 0 Z " fill="#DF2F68" transform="translate(314,343)"/>
<path d="M0 0 C3.96 0 7.92 0 12 0 C11.01 0.495 11.01 0.495 10 1 C10 1.66 10 2.32 10 3 C6.7 3 3.4 3 0 3 C0 2.01 0 1.02 0 0 Z " fill="#FFE4F2" transform="translate(277,336)"/>
<path d="M0 0 C1 2 1 2 0.36328125 4.2421875 C-3.10930987 12.94302918 -3.10930987 12.94302918 -7 16 C-7 12.8937493 -6.57949134 11.80471367 -5.1875 9.125 C-4.82527344 8.42632812 -4.46304688 7.72765625 -4.08984375 7.0078125 C-2.79716947 4.62632655 -1.43611921 2.29779074 0 0 Z " fill="#AB073B" transform="translate(87,208)"/>
<path d="M0 0 C0.99 0 1.98 0 3 0 C2.75 2.375 2.75 2.375 2 5 C-0.0625 6.3125 -0.0625 6.3125 -2 7 C-2 7.66 -2 8.32 -2 9 C-2.66 9 -3.32 9 -4 9 C-2.94124926 5.59687262 -1.99097846 2.98646769 0 0 Z " fill="#C40844" transform="translate(97,191)"/>
<path d="M0 0 C3.3 0 6.6 0 10 0 C10 0.99 10 1.98 10 3 C6.7 3 3.4 3 0 3 C0 2.01 0 1.02 0 0 Z " fill="#D6386B" transform="translate(278,340)"/>
<path d="M0 0 C3.3 0 6.6 0 10 0 C10 0.99 10 1.98 10 3 C6.7 3 3.4 3 0 3 C0 2.01 0 1.02 0 0 Z " fill="#D5386B" transform="translate(147,340)"/>
<path d="M0 0 C3.96 0 7.92 0 12 0 C11.01 1.485 11.01 1.485 10 3 C7.6171875 3.29296875 7.6171875 3.29296875 4.875 3.1875 C3.96492188 3.16042969 3.05484375 3.13335937 2.1171875 3.10546875 C1.41851562 3.07066406 0.71984375 3.03585937 0 3 C0 2.01 0 1.02 0 0 Z " fill="#FFE5F2" transform="translate(82,336)"/>
<path d="M0 0 C0.99 0.33 1.98 0.66 3 1 C3 1.66 3 2.32 3 3 C3.99 3 4.98 3 6 3 C5.67 4.65 5.34 6.3 5 8 C4.01 8 3.02 8 2 8 C0.74335022 5.09399739 0 3.20395416 0 0 Z " fill="#D8235E" transform="translate(114,342)"/>
<path d="M0 0 C0.99 0.495 0.99 0.495 2 1 C3.70363822 1.22622081 5.41328701 1.40888473 7.125 1.5625 C8.03507812 1.64628906 8.94515625 1.73007812 9.8828125 1.81640625 C10.58148438 1.87699219 11.28015625 1.93757813 12 2 C12 2.66 12 3.32 12 4 C8.04 4 4.08 4 0 4 C0 2.68 0 1.36 0 0 Z " fill="#FFEEF8" transform="translate(340,342)"/>
<path d="M0 0 C2.97 0 5.94 0 9 0 C9 0.99 9 1.98 9 3 C6.03 3 3.06 3 0 3 C0 2.01 0 1.02 0 0 Z " fill="#D53368" transform="translate(83,340)"/>
<path d="M0 0 C0.33 0.99 0.66 1.98 1 3 C1.66 3 2.32 3 3 3 C3 4.32 3 5.64 3 7 C6.3 7.33 9.6 7.66 13 8 C13 8.33 13 8.66 13 9 C11.20866022 9.05391993 9.41686101 9.09275571 7.625 9.125 C6.62726563 9.14820313 5.62953125 9.17140625 4.6015625 9.1953125 C2 9 2 9 0 7 C-0.125 3.375 -0.125 3.375 0 0 Z " fill="#DF4576" transform="translate(339,334)"/>
<path d="M0 0 C1.26070809 2.9798555 0.99119908 4.02316031 -0.1875 7.125 C-1.99400788 9.99049526 -2.86809018 10.9200311 -6 12 C-4.68139111 7.38486888 -2.78644563 3.90102388 0 0 Z " fill="#3F0010" transform="translate(154,207)"/>
<path d="M0 0 C0.66 0 1.32 0 2 0 C2.625 1.8125 2.625 1.8125 3 4 C2.01 5.485 2.01 5.485 1 7 C0.33841957 9.04584079 0.33841957 9.04584079 -0.125 11.1875 C-0.41375 12.445625 -0.7025 13.70375 -1 15 C-2.20220203 11.46905698 -1.79532349 8.87101018 -1.0625 5.25 C-0.86785156 4.26515625 -0.67320313 3.2803125 -0.47265625 2.265625 C-0.31667969 1.51796875 -0.16070312 0.7703125 0 0 Z " fill="#C4C4C4" transform="translate(57,288)"/>
<path d="M0 0 C2.45234885 0.98093954 3.7809268 1.68703828 5.3125 3.875 C6.12082372 6.37345514 5.71847013 7.52928976 5 10 C4.16121545 8.71186658 3.32913217 7.41936744 2.5 6.125 C2.0359375 5.40570313 1.571875 4.68640625 1.09375 3.9453125 C0 2 0 2 0 0 Z " fill="#320009" transform="translate(259,118)"/>
<path d="M0 0 C0 3.60777515 -0.9904432 5.06295544 -3 8 C-3.99 8.495 -3.99 8.495 -5 9 C-3.375 2.25 -3.375 2.25 0 0 Z " fill="#C20A45" transform="translate(210,116)"/>
<path d="M0 0 C4.42857143 5.14285714 4.42857143 5.14285714 5 9 C4.01 8.67 3.02 8.34 2 8 C2 7.01 2 6.02 2 5 C1.34 5 0.68 5 0 5 C0 3.35 0 1.7 0 0 Z " fill="#AF093D" transform="translate(253,109)"/>
</svg>
